<mxfile host="app.diagrams.net" agent="Mozilla/5.0 (Windows NT 10.0; Win64; x64) AppleWebKit/537.36 (KHTML, like Gecko) Chrome/137.0.0.0 Safari/537.36" version="27.0.9">
  <diagram name="Page-1" id="13e1069c-82ec-6db2-03f1-153e76fe0fe0">
    <mxGraphModel dx="1281" dy="1546" grid="1" gridSize="10" guides="1" tooltips="1" connect="1" arrows="1" fold="1" page="1" pageScale="1" pageWidth="1100" pageHeight="850" background="none" math="0" shadow="0">
      <root>
        <mxCell id="0" />
        <mxCell id="1" parent="0" />
        <mxCell id="cryCkhxZHCyA89zmYzfY-1" value="&lt;div&gt;&lt;b&gt;&lt;font style=&quot;font-size: 23px;&quot;&gt;Ejercicio Diagrama de Casos de Uso - cuentas bancarias&lt;br&gt;&lt;br&gt;&lt;/font&gt;&lt;/b&gt;&lt;/div&gt;&lt;div&gt;Modele el siguiente escenario, mediante un Diagrama de Casos de Uso usando UML:&lt;br&gt;&lt;br&gt;&lt;/div&gt;&lt;div&gt;Un banco privado requiere el desarrollo de un software que le permita gestionar los datos de su&lt;/div&gt;&lt;div&gt;cartera de clientes, las cuentas bancarias que poseen cada uno de ellos, que pueden ser Cajas de&lt;/div&gt;&lt;div&gt;Ahorro o Cuentas Corrientes y los movimientos de dinero. &lt;br&gt;&lt;br&gt;Esto debe incluir, la creación de dichas&amp;nbsp;&lt;span style=&quot;background-color: transparent; color: light-dark(rgb(0, 0, 0), rgb(255, 255, 255));&quot;&gt;cuentas bancarias, el registro de las operaciones de depósito, extracción y transferencias entre&amp;nbsp;&lt;/span&gt;&lt;span style=&quot;background-color: transparent; color: light-dark(rgb(0, 0, 0), rgb(255, 255, 255));&quot;&gt;cuentas, consultar los saldos de sus cuentas y el registro de los movimientos de las mismas.&lt;br&gt;&lt;br&gt;&lt;/span&gt;&lt;/div&gt;&lt;div&gt;Para las cuentas corrientes se debe incluir un monto máximo en descubierto que podrá ser&lt;/div&gt;&lt;div&gt;modificado en función de la situación financiera del cliente.&lt;br&gt;&lt;br&gt;&lt;/div&gt;&lt;div&gt;En el caso de una operación de extracción para este tipo de cuenta, ésta se deberá confirmar si el&lt;/div&gt;&lt;div&gt;monto a extraer no es superior al saldo más el monto máximo en descubierto. &lt;br&gt;&lt;br&gt;Y para el caso de&amp;nbsp;&lt;span style=&quot;background-color: transparent; color: light-dark(rgb(0, 0, 0), rgb(255, 255, 255));&quot;&gt;una transferencia, se considerará como correcta si el monto a transferir no es superior al saldo&amp;nbsp;&lt;/span&gt;&lt;span style=&quot;background-color: transparent; color: light-dark(rgb(0, 0, 0), rgb(255, 255, 255));&quot;&gt;más el monto máximo en descubierto.&lt;/span&gt;&lt;/div&gt;" style="text;html=1;align=left;verticalAlign=middle;whiteSpace=wrap;rounded=0;fontSize=20;" vertex="1" parent="1">
          <mxGeometry x="30" y="-250" width="910" height="580" as="geometry" />
        </mxCell>
        <mxCell id="cryCkhxZHCyA89zmYzfY-2" value="&lt;div&gt;&lt;span style=&quot;font-size: 23px;&quot;&gt;&lt;b&gt;Sujeto: Sistema cuentas bancarias&lt;/b&gt;&lt;/span&gt;&lt;/div&gt;&lt;div&gt;&lt;span style=&quot;font-size: 23px;&quot;&gt;&lt;b&gt;Actores: Clientes&lt;/b&gt;&lt;/span&gt;&lt;/div&gt;&lt;div&gt;&lt;span style=&quot;font-size: 23px;&quot;&gt;&lt;b&gt;CDU:&amp;nbsp;&lt;br&gt;--------------------------------------------------&lt;br&gt;Cajas de ahorro o Cuentas Corrientes&lt;br&gt;Movimientos de dinero&lt;br&gt;&lt;br&gt;&lt;/b&gt;&lt;/span&gt;&lt;/div&gt;" style="text;html=1;align=left;verticalAlign=middle;whiteSpace=wrap;rounded=0;fontSize=20;" vertex="1" parent="1">
          <mxGeometry x="30" y="300" width="570" height="240" as="geometry" />
        </mxCell>
      </root>
    </mxGraphModel>
  </diagram>
</mxfile>
